<?xml version="1.0" encoding="UTF-8"?><svg id="Layer_1" xmlns="http://www.w3.org/2000/svg" viewBox="0 0 356.09 108.32"><defs><style>.cls-1{fill:#010101;}.cls-2{fill:#ce5a28;}.cls-3{fill:none;stroke:#010101;stroke-linecap:round;stroke-miterlimit:10;stroke-width:10px;}</style></defs><g id="Logo_3"><ellipse class="cls-2" cx="73.99" cy="43.39" rx="24.59" ry="25.14"/><path class="cls-3" d="M21.56,35.98c.02,.17,.49,3.58,.64,5.12,.55,5.75,1.77,18.59,2.33,24.43,.42,4.36,1.93,8.57,4.54,12.05,.17,.22,.34,.45,.52,.68,5.49,6.86,14.05,10.35,22.69,9.59l24.98-2.22c.7-.06,1.41,.07,2.04,.37l23.61,11.36L62.29,18.38c-3.61-7.02-10.21-12.05-17.89-13.16-.27-.04-.55-.07-.83-.11-7.32-.8-14.39,3-18.18,9.45h0c-1.15,1.96-2.07,4.04-2.75,6.2l-13.02,8.58,11.93,6.64Z"/></g><path class="cls-1" d="M136.65,18.67v12.73h-2.09c-8.84,0-13.97,5.23-13.97,13.49v22.99h-12.35V19.43h12.35v6.27c3.52-4.46,8.27-7.03,13.97-7.03h2.09Z"/><path class="cls-1" d="M143.87,8.61c0-3.51,2.71-6.17,6.17-6.17s6.18,2.67,6.18,6.17-2.71,6.18-6.18,6.18-6.17-2.67-6.17-6.18Z"/><rect class="cls-1" x="143.87" y="19.43" width="12.35" height="48.45"/><path class="cls-1" d="M216.83,82.13l-12.73,3.42c-.38-3.51-3.33-5.79-7.69-5.79h-15.87c-9.02,0-15.01-5.22-15.01-12.92,0-4.94,2.56-9.69,6.56-12.16-4.08-3.8-6.46-9.03-6.46-15.11,0-12.16,9.69-21.28,22.71-21.28,3.89,0,7.41,.85,10.54,2.28,1.42-5.23,6.08-8.46,12.45-8.46h3.99v11.4h-3.42c-2.47,0-4.46,1.33-4.94,3.52,2.66,3.42,4.18,7.79,4.18,12.54,0,12.16-9.88,21.28-22.8,21.28-2.85,0-5.51-.47-7.98-1.24-1.52,.95-2.47,2.57-2.47,4.18,0,2.38,2.09,4.08,5.13,4.08h15.77c9.59,0,16.43,5.32,18.05,14.25Zm-38.57-42.56c0,5.51,4.27,9.6,10.07,9.6s10.07-4.08,10.07-9.6-4.37-9.59-10.07-9.59-10.07,4.08-10.07,9.59Z"/><path class="cls-1" d="M298.05,36.34v31.54h-12.35v-27.84c0-5.89-3.71-9.79-9.5-9.79-6.08,0-10.17,3.99-10.17,9.98v27.65h-12.35v-27.84c0-5.89-3.8-9.79-9.6-9.79s-10.17,3.99-10.17,9.98v27.65h-12.35V19.43h12.35v5.04c3.61-4.08,8.46-6.18,14.34-6.18,6.84,0,12.16,2.95,15.2,7.89,3.9-5.13,9.5-7.89,16.53-7.89,10.93,0,18.05,7.13,18.05,18.05Z"/><path class="cls-1" d="M356.09,19.43v48.45h-12.35v-3.46c-3.9,4.28-9.31,4.6-15.77,4.6-13.49,0-23.66-10.92-23.66-25.37s10.17-25.37,23.66-25.37c6.46,0,11.88,.82,15.77,5.1v-3.96h12.35Zm-12.35,24.23c0-7.6-5.7-13.4-13.4-13.4s-13.3,5.8-13.3,13.4,5.7,13.4,13.3,13.4,13.4-5.79,13.4-13.4Z"/></svg>