<?xml version="1.0" encoding="utf-8"?>
<!-- Generator: Adobe Illustrator 24.2.3, SVG Export Plug-In . SVG Version: 6.00 Build 0)  -->
<svg version="1.1" id="Layer_1" xmlns="http://www.w3.org/2000/svg" xmlns:xlink="http://www.w3.org/1999/xlink" x="0px" y="0px"
	 viewBox="0 0 963.07 329.91" style="enable-background:new 0 0 963.07 329.91;" xml:space="preserve">
<style type="text/css">
	.st0{fill:#F90078;}
	.st1{fill:none;stroke:#F90078;stroke-width:8;stroke-miterlimit:10;}
</style>
<symbol  id="Nuevo_símbolo_2" viewBox="-34.79 -36.68 69.59 73.36">
	<circle class="st0" cx="-28.03" cy="0" r="6.77"/>
	<g>
		<path class="st1" d="M27.49,6.21c-7.9,6.39-25.2,19.59-40.94,26.12c-3.14,1.3-5.64-1.2-4.34-4.34
			C-11.26,12.25,1.94-5.05,8.33-12.95c1.58-1.95,3.82-3.11,5.94-3.26L27.66-6.06l1.57,1.54c0.16,0.28,0.33,0.55,0.48,0.83
			c0.2,0.38,0.4,0.78,0.59,1.18C31.56,0.2,30.33,3.91,27.49,6.21z"/>
		<path class="st1" d="M14.27-16.21c-2.13,0.15-4.37,1.31-5.94,3.26C5.83-9.86,2.28-5.31-1.5,0c-5.88-8.26-12.32-18.41-16.29-27.99
			c-1.3-3.14,1.2-5.64,4.34-4.34c9.4,3.9,19.36,10.18,27.55,15.97c0.09,0.07,0.19,0.13,0.28,0.2"/>
	</g>
</symbol>
<g id="Option_3">
	<g>
		<path class="st0" d="M437.18,94.72c13.6,0,24.93,1.54,34,4.64c9.06,3.09,16.33,7.52,21.79,13.29c5.46,5.77,9.32,12.78,11.59,21.02
			c2.27,8.24,3.4,17.41,3.4,27.51v95.8c-6.6,1.44-15.76,3.14-27.51,5.1c-11.74,1.96-25.96,2.94-42.65,2.94
			c-10.51,0-20.04-0.93-28.59-2.78c-8.55-1.85-15.92-4.89-22.1-9.12c-6.18-4.22-10.92-9.73-14.22-16.53
			c-3.3-6.8-4.94-15.14-4.94-25.03c0-9.47,1.9-17.51,5.72-24.11c3.81-6.59,8.91-11.84,15.3-15.76c6.38-3.91,13.7-6.75,21.94-8.5
			c8.24-1.75,16.79-2.63,25.65-2.63c5.97,0,11.28,0.26,15.92,0.77c4.64,0.52,8.39,1.19,11.28,2.01V159c0-7.83-2.37-14.11-7.11-18.85
			c-4.74-4.74-12.98-7.11-24.72-7.11c-7.83,0-15.56,0.57-23.18,1.7c-7.63,1.13-14.22,2.73-19.78,4.79l-5.87-37.09
			c2.68-0.82,6.03-1.7,10.04-2.63c4.02-0.93,8.39-1.75,13.13-2.47c4.74-0.72,9.74-1.34,14.99-1.85
			C426.52,94.98,431.82,94.72,437.18,94.72z M440.89,229.47c4.53,0,8.86-0.1,12.98-0.31c4.12-0.2,7.42-0.51,9.89-0.93v-34.92
			c-1.85-0.41-4.64-0.82-8.34-1.24c-3.71-0.41-7.11-0.62-10.2-0.62c-4.33,0-8.4,0.26-12.21,0.77c-3.81,0.52-7.16,1.5-10.04,2.94
			c-2.89,1.44-5.15,3.4-6.8,5.87c-1.65,2.47-2.47,5.56-2.47,9.27c0,7.21,2.42,12.21,7.26,14.99
			C425.79,228.08,432.44,229.47,440.89,229.47z"/>
		<path class="st0" d="M614.57,264.7c-13.39-0.21-24.26-1.65-32.6-4.33c-8.34-2.67-14.94-6.44-19.78-11.28
			c-4.84-4.84-8.14-10.71-9.89-17.62c-1.75-6.9-2.63-14.68-2.63-23.33V29.2l46.05-7.42v177.08c0,4.12,0.31,7.83,0.93,11.13
			c0.62,3.3,1.8,6.08,3.55,8.34c1.75,2.27,4.27,4.12,7.57,5.56c3.29,1.44,7.73,2.37,13.29,2.78L614.57,264.7z"/>
		<path class="st0" d="M693.38,157.43c4.53-4.92,9.21-10.03,14.05-15.36c4.83-5.33,9.52-10.6,14.05-15.82
			c4.53-5.23,8.8-10.19,12.81-14.9c4.01-4.71,7.46-8.8,10.34-12.29h54.75c-10.92,12.55-21.58,24.52-31.99,35.93
			c-10.41,11.41-21.79,23.18-34.15,35.31c6.18,5.57,12.56,12.23,19.16,19.97c6.59,7.74,12.98,15.74,19.16,24
			c6.18,8.26,11.85,16.51,17,24.76c5.15,8.26,9.47,15.79,12.98,22.6H748.6c-3.29-5.37-7.05-11.3-11.26-17.81
			c-4.21-6.5-8.69-13.01-13.42-19.51c-4.73-6.5-9.72-12.75-14.96-18.74c-5.24-5.99-10.44-11.05-15.58-15.18v71.25h-46.05V29.2
			l46.05-7.42V157.43z"/>
		<path class="st0" d="M961.94,256.05c-7.83,2.27-17.92,4.38-30.29,6.33c-12.36,1.96-25.34,2.94-38.94,2.94
			c-13.81,0-25.29-1.85-34.46-5.56c-9.17-3.71-16.43-8.91-21.79-15.61c-5.36-6.69-9.17-14.68-11.44-23.95
			c-2.27-9.27-3.4-19.47-3.4-30.6V99.05h46.05v84.99c0,14.83,1.96,25.55,5.87,32.14c3.91,6.6,11.23,9.89,21.94,9.89
			c3.29,0,6.8-0.15,10.51-0.46c3.71-0.31,7-0.67,9.89-1.08V99.05h46.05V256.05z"/>
	</g>
	
		<use xlink:href="#Nuevo_símbolo_2"  width="69.59" height="73.36" id="Logo_3" x="-34.79" y="-36.68" transform="matrix(4.0387 0 0 -4.0387 140.5224 164.9161)" style="overflow:visible;"/>
</g>
</svg>
